<svg
  height="2493"
  width="2500"
  xmlns="http://www.w3.org/2000/svg"
  viewBox="0 0 400 399.202"
>
  <path
    d="M191.373 8.155a2047.406 2047.406 0 0 0-11.133 5.016c-2.676 1.234-9.54 4.329-16.368 7.381-5.226 2.335-39.508 17.932-43.912 19.977-2.257 1.049-41.61 18.893-54.092 24.527-4.501 2.032-8.386 3.858-8.633 4.057-.671.543-1.105 57.74-.747 98.364.222 25.111.413 33.594.747 33.175.247-.309 6.108-3.12 13.024-6.246 6.917-3.125 14.252-6.469 16.3-7.43 2.049-.96 3.787-1.746 3.862-1.746s2.05-.899 4.389-1.996c2.34-1.098 4.326-1.996 4.414-1.996.163 0 3.396-1.486 10.09-4.635 2.049-.964 3.796-1.753 3.883-1.753s1.465-.608 3.062-1.351c4.629-2.154 7.941-3.676 10.088-4.637 1.098-.491 6.128-2.774 11.178-5.073s10.978-4.994 13.174-5.988a1057.16 1057.16 0 0 0 7.325-3.358c1.833-.852 3.388-1.549 3.456-1.549.067 0 1.891-.828 4.052-1.84s6.624-3.059 9.917-4.55c3.294-1.491 7.605-3.467 9.581-4.391 7.42-3.47 15.124-6.453 16.243-6.288.807.118.999.037.716-.305-.527-.635 6.029-4.185 16.574-8.975 1.098-.499 4.331-1.974 7.186-3.279 2.854-1.306 5.728-2.615 6.387-2.91 4.246-1.901 5.921-2.662 8.583-3.9 1.646-.765 9.012-4.123 16.367-7.461s14.873-6.772 16.706-7.632c1.833-.859 3.394-1.563 3.469-1.563s1.63-.7 3.454-1.557c1.824-.856 10.323-4.738 18.886-8.627s17.069-7.769 18.902-8.623c1.833-.853 3.389-1.552 3.457-1.552.069 0 1.443-.616 3.054-1.369 1.612-.753 5.625-2.603 8.918-4.111 8.117-3.717 8.656-4.023 8.505-4.822-.158-.837-4.36-2.953-18.685-9.411-6.037-2.722-12.235-5.527-13.772-6.233s-5.489-2.503-8.782-3.994c-3.294-1.492-6.976-3.161-8.184-3.71a28980.62 28980.62 0 0 0-34.472-15.627l-16.767-7.59C210.777 8.539 201.979 4.578 201.154 4.287c-.361-.127-4.651 1.569-9.781 3.868"
    fill="#1ce1bd"
  />
  <path
    d="M343.108 201.207c-.37.599-4.593 2.667-9.375 4.59-3.447 1.386-24.715 10.98-35.13 15.847a506.73 506.73 0 0 1-6.387 2.906c-2.086.93-9.182 4.161-15.769 7.177a25798.296 25798.296 0 0 1-38.722 17.662c-14.711 6.697-29.334 13.414-32.496 14.926-3.162 1.513-5.932 2.751-6.156 2.751s-.692.257-1.039.572c-.757.685-5.601 2.912-24.381 11.209-7.795 3.444-17.226 7.659-20.958 9.368a6766.451 6766.451 0 0 1-17.366 7.905 5970.217 5970.217 0 0 0-20.758 9.474c-11.597 5.326-33.542 15.29-42.715 19.395-12.477 5.583-14.476 6.816-13.167 8.121.326.324 7.329 3.661 15.562 7.416a7329.44 7329.44 0 0 1 16.567 7.569c.879.409 3.663 1.679 6.188 2.822s5.758 2.613 7.186 3.268c16.076 7.369 27.498 12.577 36.127 16.471 5.709 2.577 11.637 5.269 13.174 5.983s3.603 1.663 4.591 2.108c4.856 2.189 27.219 12.301 29.142 13.178 1.207.551 4.494 2.054 7.305 3.341 6.055 2.772 6.057 2.772 10.32.785 1.833-.854 9.171-4.198 16.307-7.429l16.766-7.595c2.086-.945 6.667-3.011 10.18-4.591 11.827-5.32 44.282-20.028 47.644-21.592 1.833-.853 3.392-1.551 3.464-1.551.124 0 3.396-1.49 8.772-3.994a590.628 590.628 0 0 1 6.387-2.904 3868.236 3868.236 0 0 0 20.559-9.352 393.987 393.987 0 0 1 5.389-2.4c1.757-.766 3.534-1.718 3.949-2.117.79-.759 1.266-128.481.487-130.829-.309-.933-1.208-1.2-1.647-.49"
    fill="#fb5c84"
  />
  <path
    d="M193.812 138.275c-3.293 1.38-8.323 3.6-11.177 4.934-2.855 1.334-6.986 3.231-9.182 4.216s-5.76 2.619-7.921 3.63c-2.161 1.012-3.985 1.839-4.052 1.839-.068 0-1.623.697-3.456 1.549-1.834.852-5.13 2.363-7.325 3.358-2.196.994-8.124 3.689-13.174 5.988s-10.08 4.582-11.178 5.073c-2.147.961-5.459 2.483-10.088 4.637-1.597.743-2.975 1.351-3.062 1.351s-1.834.789-3.883 1.753c-6.694 3.149-9.927 4.635-10.09 4.635-.088 0-2.074.898-4.414 1.996-2.339 1.097-4.328 1.996-4.421 1.996-.092 0-1.47.625-3.063 1.389-1.592.764-8.995 4.154-16.451 7.534s-13.614 6.319-13.685 6.531c-.133.4 4.795 2.792 15.864 7.7 4.003 1.776 17.07 7.698 19.361 8.776 1.616.759 21.533 9.793 25.948 11.769 1.318.589 3.161 1.419 4.097 1.844a12222 12222 0 0 0 8.383 3.798c9.65 4.371 9.909 4.489 14.004 6.402 2.052.958 3.786 1.742 3.856 1.742.069 0 1.825.794 3.903 1.765 2.077.97 5.013 2.298 6.524 2.95 16.803 7.256 37.774 17.338 39.36 18.924.796.796.801.794 6.243-1.81 2.996-1.434 17.662-8.17 32.592-14.969s32.535-14.831 39.122-17.848 13.683-6.247 15.769-7.177a506.73 506.73 0 0 0 6.387-2.906c10.051-4.7 31-14.146 35.13-15.842 5.425-2.227 9.256-4.174 9.454-4.804.069-.22-1.805-1.291-4.165-2.381-2.36-1.089-6.627-3.088-9.481-4.442a1193.543 1193.543 0 0 0-7.785-3.661c-1.427-.661-5.469-2.542-8.982-4.181-9.169-4.278-10.501-4.895-13.173-6.097-1.318-.593-6.258-2.837-10.978-4.986-4.721-2.15-9.661-4.391-10.978-4.979a714.552 714.552 0 0 1-4.192-1.89 9582.094 9582.094 0 0 0-21.158-9.614 31830.375 31830.375 0 0 1-34.131-15.477c-19.334-8.831-16.592-8.266-24.352-5.015"
    fill="#0587e1"
  />
</svg>
