{
	"asset":{
		"generator":"Khronos glTF Blender I/O v3.6.28",
		"version":"2.0"
	},
	"scene":0,
	"scenes":[
		{
			"name":"Scene",
			"nodes":[
				0,
				1
			]
		}
	],
	"nodes":[
		{
			"mesh":0,
			"name":"\u5713\u67f1\u9ad4",
			"rotation":[
				0.7071068286895752,
				0,
				0,
				0.7071068286895752
			]
		},
		{
			"mesh":1,
			"name":"\u5713\u5f62",
			"rotation":[
				0.7071068286895752,
				0,
				0,
				0.7071068286895752
			]
		}
	],
	"materials":[
		{
			"doubleSided":true,
			"name":"\u6750\u8cea.001",
			"pbrMetallicRoughness":{
				"baseColorFactor":[
					0.800000011920929,
					0.800000011920929,
					0.800000011920929,
					1
				],
				"roughnessFactor":0.21830984950065613
			}
		},
		{
			"doubleSided":true,
			"name":"\u6750\u8cea.003",
			"pbrMetallicRoughness":{
				"baseColorTexture":{
					"index":0
				},
				"metallicFactor":0,
				"roughnessFactor":0.5
			}
		}
	],
	"meshes":[
		{
			"name":"\u5713\u67f1\u9ad4",
			"primitives":[
				{
					"attributes":{
						"POSITION":0,
						"NORMAL":1,
						"TEXCOORD_0":2
					},
					"indices":3,
					"material":0
				}
			]
		},
		{
			"name":"\u5713\u5f62",
			"primitives":[
				{
					"attributes":{
						"POSITION":4,
						"NORMAL":5,
						"TEXCOORD_0":6
					},
					"indices":7,
					"material":1
				}
			]
		}
	],
	"textures":[
		{
			"sampler":0,
			"source":0
		}
	],
	"images":[
		{
			"bufferView":8,
			"mimeType":"image/jpeg",
			"name":"G100"
		}
	],
	"accessors":[
		{
			"bufferView":0,
			"componentType":5126,
			"count":1912,
			"max":[
				14.984895706176758,
				0.5,
				15
			],
			"min":[
				-14.984895706176758,
				-0.5,
				-15
			],
			"type":"VEC3"
		},
		{
			"bufferView":1,
			"componentType":5126,
			"count":1912,
			"type":"VEC3"
		},
		{
			"bufferView":2,
			"componentType":5126,
			"count":1912,
			"type":"VEC2"
		},
		{
			"bufferView":3,
			"componentType":5123,
			"count":5880,
			"type":"SCALAR"
		},
		{
			"bufferView":4,
			"componentType":5126,
			"count":32,
			"max":[
				14.5,
				0,
				14.5
			],
			"min":[
				-14.5,
				0,
				-14.5
			],
			"type":"VEC3"
		},
		{
			"bufferView":5,
			"componentType":5126,
			"count":32,
			"type":"VEC3"
		},
		{
			"bufferView":6,
			"componentType":5126,
			"count":32,
			"type":"VEC2"
		},
		{
			"bufferView":7,
			"componentType":5123,
			"count":90,
			"type":"SCALAR"
		}
	],
	"bufferViews":[
		{
			"buffer":0,
			"byteLength":22944,
			"byteOffset":0,
			"target":34962
		},
		{
			"buffer":0,
			"byteLength":22944,
			"byteOffset":22944,
			"target":34962
		},
		{
			"buffer":0,
			"byteLength":15296,
			"byteOffset":45888,
			"target":34962
		},
		{
			"buffer":0,
			"byteLength":11760,
			"byteOffset":61184,
			"target":34963
		},
		{
			"buffer":0,
			"byteLength":384,
			"byteOffset":72944,
			"target":34962
		},
		{
			"buffer":0,
			"byteLength":384,
			"byteOffset":73328,
			"target":34962
		},
		{
			"buffer":0,
			"byteLength":256,
			"byteOffset":73712,
			"target":34962
		},
		{
			"buffer":0,
			"byteLength":180,
			"byteOffset":73968,
			"target":34963
		},
		{
			"buffer":0,
			"byteLength":30627,
			"byteOffset":74148
		}
	],
	"samplers":[
		{
			"magFilter":9729,
			"minFilter":9987,
			"wrapS":33071,
			"wrapT":33071
		}
	],
	"buffers":[
		{
			"byteLength":104776,
			"uri":"data:application/octet-stream;base64,"
		}
	]
}
